REM DIRINDEX 1\2,1\3,1\4,1\5
REM DIRNAME folder01,folder02,folder03,folder04,folder05
TITLE ""
FILE "1800_086.mp3" MP3
  TRACK 01 AUDIO
    TITLE "2:cjc044_2285"
    INDEX 01 00:00:00
  TRACK 02 AUDIO
    TITLE "0:"
    INDEX 01 00:00:70
  TRACK 03 AUDIO
    TITLE "3:cjc044_2286"
    INDEX 01 00:01:52
  TRACK 04 AUDIO
    TITLE "0:"
    INDEX 01 00:02:43
  TRACK 05 AUDIO
    TITLE "4:cjc044_2287"
    INDEX 01 00:03:35
  TRACK 06 AUDIO
    TITLE "0:"
    INDEX 01 00:04:31
  TRACK 07 AUDIO
    TITLE "5:cjc044_2288"
    INDEX 01 00:05:05
  TRACK 08 AUDIO
    TITLE "0:"
    INDEX 01 00:08:42
  TRACK 09 AUDIO
    TITLE "2:cjc044_2289"
    INDEX 01 00:10:27
  TRACK 10 AUDIO
    TITLE "0:"
    INDEX 01 00:11:48
  TRACK 11 AUDIO
    TITLE "3:cjc044_2290"
    INDEX 01 00:12:34
  TRACK 12 AUDIO
    TITLE "0:"
    INDEX 01 00:13:45
  TRACK 13 AUDIO
    TITLE "4:cjc044_2291"
    INDEX 01 00:14:27
  TRACK 14 AUDIO
    TITLE "0:"
    INDEX 01 00:15:48
  TRACK 15 AUDIO
    TITLE "5:cjc044_2292"
    INDEX 01 00:16:18
  TRACK 16 AUDIO
    TITLE "0:"
    INDEX 01 00:19:28
  TRACK 17 AUDIO
    TITLE "2:cjc044_2293"
    INDEX 01 00:21:15
  TRACK 18 AUDIO
    TITLE "0:"
    INDEX 01 00:22:27
  TRACK 19 AUDIO
    TITLE "3:cjc044_2294"
    INDEX 01 00:23:14
  TRACK 20 AUDIO
    TITLE "0:"
    INDEX 01 00:24:49
  TRACK 21 AUDIO
    TITLE "4:cjc044_2295"
    INDEX 01 00:25:33
  TRACK 22 AUDIO
    TITLE "0:"
    INDEX 01 00:26:46
  TRACK 23 AUDIO
    TITLE "5:cjc044_2296"
    INDEX 01 00:27:20
  TRACK 24 AUDIO
    TITLE "0:"
    INDEX 01 00:31:00
  TRACK 25 AUDIO
    TITLE "2:cjc044_2297"
    INDEX 01 00:32:64
  TRACK 26 AUDIO
    TITLE "0:"
    INDEX 01 00:33:73
  TRACK 27 AUDIO
    TITLE "3:cjc044_2298"
    INDEX 01 00:34:59
  TRACK 28 AUDIO
    TITLE "0:"
    INDEX 01 00:36:01
  TRACK 29 AUDIO
    TITLE "4:cjc044_2299"
    INDEX 01 00:36:60
  TRACK 30 AUDIO
    TITLE "0:"
    INDEX 01 00:37:73
  TRACK 31 AUDIO
    TITLE "5:cjc044_2300"
    INDEX 01 00:38:43
  TRACK 32 AUDIO
    TITLE "0:"
    INDEX 01 00:42:39
  TRACK 33 AUDIO
    TITLE "2:cjc044_2301"
    INDEX 01 00:44:30
  TRACK 34 AUDIO
    TITLE "0:"
    INDEX 01 00:45:51
  TRACK 35 AUDIO
    TITLE "3:cjc044_2302"
    INDEX 01 00:46:39
  TRACK 36 AUDIO
    TITLE "0:"
    INDEX 01 00:47:60
  TRACK 37 AUDIO
    TITLE "4:cjc044_2303"
    INDEX 01 00:48:46
  TRACK 38 AUDIO
    TITLE "0:"
    INDEX 01 00:49:70
  TRACK 39 AUDIO
    TITLE "5:cjc044_2304"
    INDEX 01 00:50:44
  TRACK 40 AUDIO
    TITLE "0:"
    INDEX 01 00:53:55
  TRACK 41 AUDIO
    TITLE "2:cjc044_2305"
    INDEX 01 00:55:44
  TRACK 42 AUDIO
    TITLE "0:"
    INDEX 01 00:56:72
  TRACK 43 AUDIO
    TITLE "3:cjc044_2306"
    INDEX 01 00:57:56
  TRACK 44 AUDIO
    TITLE "0:"
    INDEX 01 00:58:71
  TRACK 45 AUDIO
    TITLE "4:cjc044_2307"
    INDEX 01 00:59:57
  TRACK 46 AUDIO
    TITLE "0:"
    INDEX 01 01:01:13
  TRACK 47 AUDIO
    TITLE "5:cjc044_2308"
    INDEX 01 01:01:58
  TRACK 48 AUDIO
    TITLE "0:"
    INDEX 01 01:05:09
  TRACK 49 AUDIO
    TITLE "2:cjc044_2309"
    INDEX 01 01:06:71
  TRACK 50 AUDIO
    TITLE "0:"
    INDEX 01 01:08:09
  TRACK 51 AUDIO
    TITLE "3:cjc044_2310"
    INDEX 01 01:08:70
  TRACK 52 AUDIO
    TITLE "0:"
    INDEX 01 01:10:18
  TRACK 53 AUDIO
    TITLE "4:cjc044_2311"
    INDEX 01 01:11:02
  TRACK 54 AUDIO
    TITLE "0:"
    INDEX 01 01:12:15
  TRACK 55 AUDIO
    TITLE "5:cjc044_2312"
    INDEX 01 01:12:64
  TRACK 56 AUDIO
    TITLE "0:"
    INDEX 01 01:16:03
  TRACK 57 AUDIO
    TITLE "2:cjc044_2313"
    INDEX 01 01:17:65
  TRACK 58 AUDIO
    TITLE "0:"
    INDEX 01 01:19:03
  TRACK 59 AUDIO
    TITLE "3:cjc044_2314"
    INDEX 01 01:19:56
  TRACK 60 AUDIO
    TITLE "0:"
    INDEX 01 01:20:57
  TRACK 61 AUDIO
    TITLE "4:cjc044_2315"
    INDEX 01 01:21:41
  TRACK 62 AUDIO
    TITLE "0:"
    INDEX 01 01:22:54
  TRACK 63 AUDIO
    TITLE "5:cjc044_2316"
    INDEX 01 01:23:32
  TRACK 64 AUDIO
    TITLE "0:"
    INDEX 01 01:25:60
